<?xml version="1.0" encoding="UTF-8"?>
<svg version="1.1" xmlns="http://www.w3.org/2000/svg" width="1320" height="1000">
<path d="M0 0 C435.6 0 871.2 0 1320 0 C1320 330 1320 660 1320 1000 C884.4 1000 448.8 1000 0 1000 C0 670 0 340 0 0 Z " fill="#303841" transform="translate(0,0)"/>
<path d="M0 0 C1.30157803 -0.00679667 1.30157803 -0.00679667 2.62945056 -0.01373065 C5.5365295 -0.02638903 8.44342145 -0.02475333 11.3505249 -0.02310181 C13.43515769 -0.02908621 15.51978825 -0.03589156 17.60441589 -0.04345703 C23.26777847 -0.06113458 28.93108062 -0.0658132 34.59446812 -0.0670886 C39.32345682 -0.06898781 44.05243146 -0.07634571 48.78141475 -0.08343279 C59.94068918 -0.09972153 71.09993135 -0.10460136 82.25921631 -0.10317993 C93.76595014 -0.10197881 105.27249632 -0.12307382 116.77918267 -0.15466726 C126.66130462 -0.18083214 136.54336529 -0.19154711 146.42552161 -0.19026911 C152.32625151 -0.18975948 158.22681471 -0.19544325 164.12751007 -0.21662521 C169.67943678 -0.23601063 175.23103785 -0.23612975 180.78297615 -0.22159195 C182.8174773 -0.21950305 184.85199885 -0.22420954 186.88646507 -0.23631287 C189.67070283 -0.25180006 192.4538226 -0.24243423 195.23803711 -0.22705078 C196.43675583 -0.24248147 196.43675583 -0.24248147 197.6596911 -0.25822389 C204.47891216 -0.175348 210.44885794 1.81193917 215.71282959 6.23226929 C216.24005615 6.88324585 216.76728271 7.53422241 217.31048584 8.20492554 C217.85575928 8.85332397 218.40103271 9.50172241 218.96282959 10.16976929 C222.14452985 14.9026586 222.62684172 18.90739089 222.6471405 24.56570435 C222.65237718 25.2904987 222.65761386 26.01529305 222.66300923 26.76205087 C222.67798479 29.18544808 222.67871384 31.6086337 222.67938232 34.03207397 C222.68700552 35.77188472 222.6954333 37.51169209 222.7046051 39.25149536 C222.72654273 43.97479995 222.73534816 48.6980398 222.74043155 53.42138958 C222.74407637 56.37418827 222.75031712 59.32697003 222.75743294 62.27976227 C222.78192609 72.58652999 222.79497878 82.89324739 222.79852295 93.20004272 C222.80215683 102.79823236 222.83204197 112.39610195 222.87392753 121.99419379 C222.90865302 130.24151189 222.92407179 138.48872405 222.92476898 146.73611474 C222.92556111 151.65881274 222.93426987 156.58118478 222.96276665 161.50380707 C222.98898557 166.13654512 222.99113122 170.76868785 222.97511101 175.40146637 C222.97329948 177.09733887 222.97996043 178.79324591 222.99592972 180.48904419 C223.08412256 190.46637265 222.85752792 198.55100446 215.58821774 206.12765121 C209.67556223 211.77035693 203.4944398 212.56512004 195.61898804 212.53485107 C194.31507002 212.54164774 194.31507002 212.54164774 192.98481023 212.54858172 C190.07850319 212.5612194 187.17238369 212.55960576 184.26605225 212.55795288 C182.17964945 212.56393848 180.09324887 212.5707441 178.0068512 212.57830811 C172.34361496 212.59597102 166.68043917 212.60066358 161.01717806 212.60193968 C157.47826668 212.60336154 153.93937066 212.60763179 150.4004631 212.61293411 C138.0524269 212.63143458 125.70443388 212.6396046 113.35638428 212.63803101 C101.84904172 212.63682925 90.34188662 212.65793834 78.83459151 212.68951833 C68.95161578 212.71567345 59.06870131 212.72639864 49.18569124 212.72512019 C43.28444921 212.72461038 37.38337382 212.73030435 31.48216629 212.75147629 C25.93187091 212.77084591 20.38190137 212.77099167 14.83159447 212.75644302 C12.79667243 212.75435234 10.76173006 212.75907125 8.72684288 212.77116394 C5.94449686 212.78662536 3.16327319 212.77730234 0.38095093 212.76190186 C-0.42042561 212.77218898 -1.22180215 212.78247611 -2.04746282 212.79307497 C-8.68579864 212.71211846 -13.82500468 210.67891105 -18.86920166 206.33773804 C-19.40802979 205.69578491 -19.94685791 205.05383179 -20.50201416 204.39242554 C-21.05631104 203.75562866 -21.61060791 203.11883179 -22.18170166 202.46273804 C-25.43716987 197.51794578 -25.87933046 192.69239319 -25.8944397 186.88012695 C-25.89897081 186.15785616 -25.90350192 185.43558537 -25.90817034 184.69142759 C-25.92078293 182.28261229 -25.91919603 179.87402401 -25.9175415 177.46517944 C-25.92352868 175.73345144 -25.93033466 174.00172611 -25.93789673 172.27000427 C-25.95554365 167.57367689 -25.96025153 162.87742242 -25.9615283 158.18106508 C-25.96295108 155.24518738 -25.96722306 152.30932815 -25.97252274 149.37345505 C-25.99101795 139.12618586 -25.99919389 128.87896867 -25.99761963 118.63168335 C-25.99641803 109.08746134 -26.01752529 99.5434654 -26.04910696 89.9993006 C-26.07527626 81.79783778 -26.08598666 73.59644879 -26.08470881 65.39494455 C-26.08419941 60.49973306 -26.08987038 55.60472258 -26.11106491 50.70955276 C-26.13045855 46.10476973 -26.13056409 41.50037925 -26.11603165 36.8955822 C-26.11394392 35.20897154 -26.11864231 33.52233622 -26.13075256 31.83576775 C-26.24687032 14.53938863 -26.24687032 14.53938863 -19.66217041 7.02523804 C-19.01119385 6.48640991 -18.36021729 5.94758179 -17.68951416 5.39242554 C-17.04111572 4.83812866 -16.39271729 4.28383179 -15.72467041 3.71273804 C-10.67836273 0.23576627 -5.98842786 -0.02295273 0 0 Z " fill="#00ACB4" transform="translate(223.62701416015625,393.7325744628906)"/>
<path d="M0 0 C4.29 0 8.58 0 13 0 C14.21693876 2.43387753 14.31959896 4.41838846 14.5625 7.125 C14.64628906 8.03507812 14.73007812 8.94515625 14.81640625 9.8828125 C14.87699219 10.58148438 14.93757813 11.28015625 15 12 C21.48625622 15.11340299 26.77113099 15.18376834 33.92578125 14.8125 C37 15 37 15 38.8984375 16.18359375 C40.35792809 18.59020057 40.36612363 20.26169664 40.3125 23.0625 C40.30863281 23.94035156 40.30476563 24.81820313 40.30078125 25.72265625 C40 28 40 28 38 30 C36.35 30 34.7 30 33 30 C33 33.3 33 36.6 33 40 C35.32998047 39.94779297 35.32998047 39.94779297 37.70703125 39.89453125 C39.74217671 39.8663956 41.77733383 39.8390952 43.8125 39.8125 C44.83666016 39.78736328 45.86082031 39.76222656 46.91601562 39.73632812 C48.39038086 39.72182617 48.39038086 39.72182617 49.89453125 39.70703125 C50.80050049 39.6913208 51.70646973 39.67561035 52.63989258 39.65942383 C55 40 55 40 56.6262207 41.11560059 C58.65283494 43.89548721 58.35978928 46.07743854 58.34057617 49.4909668 C58.34123329 50.47185776 58.34123329 50.47185776 58.34190369 51.4725647 C58.33981539 53.63175423 58.31648388 55.79016505 58.29296875 57.94921875 C58.28737291 59.44708329 58.28310275 60.94495332 58.28010559 62.44282532 C58.2686558 66.38358746 58.23918778 70.32401745 58.20599365 74.26464844 C58.17529548 78.28641262 58.16160082 82.30823053 58.14648438 86.33007812 C58.11431793 94.22020444 58.06312028 102.11006089 58 110 C59.65 110.33 61.3 110.66 63 111 C63.495 115.95 63.495 115.95 64 121 C26.38 121 -11.24 121 -50 121 C-50 117.7 -50 114.4 -50 111 C-47.525 110.505 -47.525 110.505 -45 110 C-45.00444122 109.16728073 -45.00888245 108.33456146 -45.01345825 107.47660828 C-45.05351138 99.6338506 -45.08397239 91.79112722 -45.10362434 83.94829082 C-45.1140672 79.91608509 -45.12823551 75.88396378 -45.15087891 71.85180664 C-45.17258947 67.96147137 -45.18456484 64.07121736 -45.18975449 60.18082619 C-45.19345346 58.69564344 -45.20067654 57.2104652 -45.21146011 55.725317 C-45.22595148 53.64710203 -45.22797896 51.56922406 -45.22705078 49.4909668 C-45.231492 48.30738083 -45.23593323 47.12379486 -45.24050903 45.90434265 C-45 43 -45 43 -43 40 C-40.75341797 39.65942383 -40.75341797 39.65942383 -37.9921875 39.70703125 C-37.00605469 39.71669922 -36.01992188 39.72636719 -35.00390625 39.73632812 C-33.97136719 39.76146484 -32.93882812 39.78660156 -31.875 39.8125 C-30.31458984 39.83280273 -30.31458984 39.83280273 -28.72265625 39.85351562 C-26.14821821 39.88894367 -23.57404526 39.94275188 -21 40 C-21 36.7 -21 33.4 -21 30 C-21.804375 29.855625 -22.60875 29.71125 -23.4375 29.5625 C-26 29 -26 29 -27 28 C-27.07244053 25.98035801 -27.08377188 23.95832876 -27.0625 21.9375 C-27.05347656 20.83277344 -27.04445313 19.72804688 -27.03515625 18.58984375 C-27.02355469 17.73519531 -27.01195312 16.88054687 -27 16 C-24.12806128 14.56403064 -21.69883025 15.02069032 -18.5 15.125 C-12.13413924 15.19062743 -6.91812142 14.29088571 -1 12 C-1.01160156 11.30132812 -1.02320313 10.60265625 -1.03515625 9.8828125 C-1.04417969 8.97273438 -1.05320312 8.06265625 -1.0625 7.125 C-1.07410156 6.22007812 -1.08570313 5.31515625 -1.09765625 4.3828125 C-1 2 -1 2 0 0 Z " fill="#294851" transform="translate(315,439)"/>
<path d="M0 0 C4.29 0 8.58 0 13 0 C13.33 16.5 13.66 33 14 50 C16.64 47.69 19.28 45.38 22 43 C27.34356164 40.04076824 31.84421741 39.48156556 37.8125 39.5625 C39.0044397 39.57603516 39.0044397 39.57603516 40.22045898 39.58984375 C50.14230263 39.88187144 56.79770497 42.93850682 64.0234375 49.78125 C67.05797526 53.18760859 69.14494795 56.85034541 71 61 C71.54720703 62.10408203 71.54720703 62.10408203 72.10546875 63.23046875 C73.34090019 67.0554508 73.38333274 70.62694969 73.375 74.625 C73.37338867 75.42389648 73.37177734 76.22279297 73.37011719 77.04589844 C73.16663586 86.91274789 70.19702995 95.51290326 63.3203125 102.7734375 C58.41067847 107.44646266 53.39445276 109.88744545 47 112 C46.01 112.33 45.02 112.66 44 113 C32.49396419 114.06829252 23.91736773 111.20978668 15 104 C14.67 103.34 14.34 102.68 14 102 C13.67 104.97 13.34 107.94 13 111 C8.71 111 4.42 111 0 111 C0 74.37 0 37.74 0 0 Z " fill="#EBEBEC" transform="translate(491,444)"/>
<path d="M0 0 C8.68736265 5.24972528 14.41356604 12.22710713 17.68359375 21.90234375 C20.24522338 32.69364325 19.21455236 42.97399925 13.546875 52.5390625 C6.59519872 62.27733823 -1.70100703 67.46799253 -13.453125 69.5390625 C-25.07321097 70.72379194 -33.78468266 67.82155523 -42.97265625 60.70703125 C-50.28133654 54.31912958 -54.86761337 46.41807719 -55.8359375 36.6953125 C-56.31950822 25.70743868 -54.46766167 17.77537844 -47.265625 9.2890625 C-34.68223518 -3.87382554 -16.8030322 -8.30868167 0 0 Z " fill="#EAEAEA" transform="translate(720.453125,487.4609375)"/>
<path d="M0 0 C10.76082618 6.28131947 16.29197324 14.06341971 20.25 25.9375 C21.22860074 38.30174398 18.55030969 48.20310448 10.72265625 57.8125 C4.43154098 64.68091762 -4.7128093 69.24314998 -13.9765625 70.30859375 C-26.41487086 70.55164115 -35.51716778 67.2061758 -44.55078125 58.55078125 C-52.95973398 48.55861539 -54.82059585 37.52390341 -53.75 24.9375 C-51.95369041 15.61270817 -46.88870961 8.58230773 -39.18359375 3.1171875 C-36.74220708 1.61087739 -34.31796575 0.21519911 -31.75 -1.0625 C-31.01007812 -1.43375 -30.27015625 -1.805 -29.5078125 -2.1875 C-20.21524464 -5.13585014 -8.65501636 -4.45217382 0 0 Z " fill="#E9E9EA" transform="translate(631.75,487.0625)"/>
<path d="M0 0 C5.61 0 11.22 0 17 0 C17.1953125 2.57161458 17.390625 5.14322917 17.5859375 7.71484375 C17.72257812 8.46894531 17.85921875 9.22304688 18 10 C18.66 10.33 19.32 10.66 20 11 C20 7.37 20 3.74 20 0 C27.59 0 35.18 0 43 0 C43 2.31 43 4.62 43 7 C43.99 7 44.98 7 46 7 C46 4.69 46 2.38 46 0 C53.59 0 61.18 0 69 0 C69 3.63 69 7.26 69 11 C69.66 11 70.32 11 71 11 C71 7.37 71 3.74 71 0 C76.61 0 82.22 0 88 0 C88 18.81 88 37.62 88 57 C78.43 57 68.86 57 59 57 C58.505 53.04 58.505 53.04 58 49 C57.01 49 56.02 49 55 49 C54.74046124 45.36645735 54.79906238 43.36972523 56.5625 40.125 C58.72105158 35.43249656 57.81729569 31.33737522 56.16186523 26.60302734 C55.13364399 24.08705574 54.05188056 21.60396747 52.9375 19.125 C52.19362331 17.44142267 51.45258837 15.75658592 50.71484375 14.0703125 C50.38605225 13.33570801 50.05726074 12.60110352 49.71850586 11.84423828 C49 10 49 10 49 8 C44.545 8.495 44.545 8.495 40 9 C39.52949219 10.22976563 39.05898438 11.45953125 38.57421875 12.7265625 C37.9454689 14.35943523 37.31655391 15.99224438 36.6875 17.625 C36.37876953 18.43324219 36.07003906 19.24148438 35.75195312 20.07421875 C34.37989212 23.62713462 32.99482975 27.00988497 31.2265625 30.390625 C29.66988504 33.01330471 29.66988504 33.01330471 30.6875 36.125 C31.89207338 38.89973419 31.89207338 38.89973419 33.1875 41 C34.37619476 43.92601787 33.78286611 45.99901325 33 49 C32.34 49.66 31.68 50.32 31 51 C30.67 52.98 30.34 54.96 30 57 C20.1 57 10.2 57 0 57 C0 38.19 0 19.38 0 0 Z " fill="#00ACB4" transform="translate(277,487)"/>
<path d="M0 0 C7.93826897 4.89678661 12.779423 11.12898657 15.8515625 19.9453125 C17.0390625 25.2578125 17.0390625 25.2578125 17.0390625 38.2578125 C-1.4409375 38.2578125 -19.9209375 38.2578125 -38.9609375 38.2578125 C-35.23753687 48.49716422 -33.62799451 52.10948002 -24.5703125 56.38671875 C-18.48956026 58.41667047 -11.35702151 58.30965708 -5.5234375 55.5703125 C-2.12180765 53.58898739 0.43197741 51.19078323 3.0390625 48.2578125 C6.98045328 49.92532398 9.8283437 52.48491899 13.0390625 55.2578125 C10.56835188 60.74302651 6.75238611 64.04294868 1.2734375 66.49609375 C-9.31698715 70.38963222 -20.02226265 72.20104364 -30.9609375 68.2578125 C-40.63269076 63.72743809 -47.04153084 57.33885937 -51.234375 47.53125 C-54.28950937 37.97163602 -54.74654145 25.77874843 -50.41796875 16.6015625 C-39.84699579 -0.40268355 -18.94565285 -9.31006308 0 0 Z " fill="#E9EAEA" transform="translate(1104.9609375,486.7421875)"/>
<path d="M0 0 C6.70269516 5.15301188 10.13789321 12.71446088 12.765625 20.59765625 C12.765625 25.54765625 12.765625 30.49765625 12.765625 35.59765625 C-5.384375 35.59765625 -23.534375 35.59765625 -42.234375 35.59765625 C-40.03961949 45.25621274 -40.03961949 45.25621274 -33.234375 51.34765625 C-27.0556976 55.04550106 -21.31986064 55.24506103 -14.234375 54.59765625 C-8.74659603 52.94773578 -4.98893428 49.82153545 -1.234375 45.59765625 C3.35868996 47.08364785 6.20131745 49.44780307 9.765625 52.59765625 C3.08861431 61.37387864 -4.34279469 65.67561267 -15.234375 67.59765625 C-25.75290883 68.68372834 -35.61746194 66.57148072 -44.234375 60.32421875 C-52.07306397 53.55722554 -56.64331186 43.90358419 -57.47265625 33.65234375 C-57.76593945 21.08747384 -54.23174599 12.00764863 -45.64453125 2.9140625 C-33.46111403 -8.58134999 -13.81316649 -8.6694524 0 0 Z " fill="#EAEAEA" transform="translate(885.234375,489.40234375)"/>
<path d="M0 0 C4.81958883 3.42219325 8.68245533 7.94673177 10.98046875 13.40625 C11.25894165 15.97528076 11.25894165 15.97528076 11.29931641 18.90917969 C11.3191861 20.01001892 11.33905579 21.11085815 11.35952759 22.24505615 C11.3710788 23.42746887 11.38263 24.60988159 11.39453125 25.828125 C11.4138974 27.04324768 11.43326355 28.25837036 11.45321655 29.51031494 C11.51300681 33.39222184 11.55939621 37.2741584 11.60546875 41.15625 C11.64364897 43.78777337 11.68270073 46.41928424 11.72265625 49.05078125 C11.81870818 55.50250275 11.90274182 61.95428276 11.98046875 68.40625 C8.02046875 68.40625 4.06046875 68.40625 -0.01953125 68.40625 C-0.51453125 63.95125 -0.51453125 63.95125 -1.01953125 59.40625 C-2.41171875 61.015 -2.41171875 61.015 -3.83203125 62.65625 C-9.790742 68.55513433 -16.88365284 70.58002423 -25.14453125 70.90625 C-33.55790604 70.59020354 -40.11769979 67.30808146 -46.01953125 61.40625 C-50.18646594 55.85033708 -49.8716898 49.04497091 -49.01953125 42.40625 C-46.45574435 35.27322512 -41.20163304 31.59790128 -34.74609375 28.21484375 C-24.13112085 23.74783903 -12.29930587 25.05050747 -1.01953125 25.40625 C-1.29260279 23.8002127 -1.57904333 22.19644474 -1.87109375 20.59375 C-2.02916504 19.70042969 -2.18723633 18.80710937 -2.35009766 17.88671875 C-3.4960796 13.6404837 -6.18409789 11.51779477 -9.83203125 9.30859375 C-15.1478231 7.11582961 -21.56271355 7.50586313 -26.88671875 9.45703125 C-29.33018435 10.68601469 -31.67273247 12.00327247 -34.01953125 13.40625 C-35.99953125 14.39625 -35.99953125 14.39625 -38.01953125 15.40625 C-40.32953125 13.09625 -42.63953125 10.78625 -45.01953125 8.40625 C-42.72312037 3.81342825 -41.57850521 3.3389056 -37.08203125 1.21875 C-36.02113281 0.70957031 -34.96023438 0.20039063 -33.8671875 -0.32421875 C-24.40319936 -4.54341785 -9.35260004 -4.63491683 0 0 Z " fill="#EAEAEA" transform="translate(960.01953125,486.59375)"/>
<path d="M0 0 C4.29 0 8.58 0 13 0 C13.33 23.1 13.66 46.2 14 70 C22.78686624 60.50476988 22.78686624 60.50476988 31.46630859 50.91210938 C40.85945792 40.88748643 40.85945792 40.88748643 47.99316406 40.09375 C52.40213028 39.95096074 56.64275438 40.34443516 61 41 C61 41.66 61 42.32 61 43 C59.65649414 44.33325195 59.65649414 44.33325195 57.72265625 45.92578125 C52.58025251 50.30391153 47.74394874 54.96434866 42.94213867 59.70776367 C41.92815598 60.70496456 40.9088119 61.69673943 39.88452148 62.68334961 C38.3887219 64.12470483 36.90976217 65.58154796 35.43359375 67.04296875 C34.55759521 67.89914795 33.68159668 68.75532715 32.77905273 69.63745117 C30.76531687 71.79424486 30.76531687 71.79424486 31.08178711 74.15258789 C32.54029301 77.08705057 34.76501734 78.99933534 37.125 81.25 C40.89607423 84.90599591 44.49400247 88.61348936 47.8984375 92.61328125 C51.61667485 96.8360378 55.50826586 100.9017199 59.37817383 104.98535156 C59.9739624 105.61795898 60.56975098 106.25056641 61.18359375 106.90234375 C61.72556396 107.47460693 62.26753418 108.04687012 62.82592773 108.63647461 C64 110 64 110 64 111 C48.29302782 112.9222968 48.29302782 112.9222968 43.03515625 109.85302734 C39.54598334 106.88307659 36.81980644 103.32507152 34.16357422 99.61083984 C32.67725692 97.55319789 31.01911879 95.68939368 29.3125 93.8125 C28.78785156 93.20535156 28.26320313 92.59820313 27.72265625 91.97265625 C24.8684327 88.70421432 21.93750397 85.50481205 19.015625 82.296875 C17.24566225 80.2799407 15.6100575 78.14674333 14 76 C13.67 87.55 13.34 99.1 13 111 C8.71 111 4.42 111 0 111 C0 74.37 0 37.74 0 0 Z " fill="#ECECEC" transform="translate(756,444)"/>
<path d="M0 0 C1.12100098 0.0141394 1.12100098 0.0141394 2.26464844 0.02856445 C9.41852304 0.22399572 14.9498367 1.15518364 20.5625 5.8125 C22.32006799 7.99614507 23.43982259 9.87177775 24.625 12.375 C23.21947701 13.41112271 21.80008306 14.42844925 20.375 15.4375 C19.58609375 16.00597656 18.7971875 16.57445312 17.984375 17.16015625 C15.625 18.375 15.625 18.375 13.45703125 18.15234375 C11.22311353 17.20447674 9.53892968 15.85675201 7.625 14.375 C2.39155404 12.63051801 -3.25457435 12.69646379 -8.5 14.375 C-9.11875 14.705 -9.7375 15.035 -10.375 15.375 C-10.76932305 19.3970951 -10.94288468 21.60039579 -8.5078125 24.921875 C-4.27296419 28.23794076 -0.10449128 29.18413861 5.0625 30.4375 C20.00751491 34.14004707 20.00751491 34.14004707 24.5 40.9375 C27.38051612 45.9434455 27.50938992 50.74929745 26.625 56.375 C24.94944947 61.7135892 22.42612578 65.38763285 17.625 68.375 C7.07868749 73.64815625 -3.70016306 75.59244663 -15.25 71.8125 C-20.51216911 69.65306171 -24.41999507 66.40933168 -28.375 62.375 C-26.42950816 58.04859671 -24.249934 56.0874538 -20.375 53.375 C-17.19171063 53.70213646 -15.36222435 55.02299178 -12.875 56.9375 C-7.02808181 60.70794257 -0.71935551 60.21273408 5.9140625 58.93359375 C8.07934184 58.32436885 8.07934184 58.32436885 10.625 56.375 C11.74859236 52.44242675 11.91885326 50.25655977 10.625 46.375 C5.65424146 43.8025841 -0.19957955 42.76892854 -5.60546875 41.40625 C-13.71791009 39.25202188 -19.33240786 36.19733054 -24.375 29.375 C-26.85242548 24.42014903 -25.74313397 17.69595131 -24.3125 12.5625 C-18.78396452 3.46716743 -10.35762213 -0.20151469 0 0 Z " fill="#E9E9E9" transform="translate(1013.375,483.625)"/>
<path d="M0 0 C6.19314231 3.19903123 9.94260473 8.98613997 12.0625 15.5 C12.98101448 24.81636115 12.14203418 31.92469208 6.875 39.75 C1.52602775 44.9801062 -2.91411811 46.73877146 -10.4375 47 C-18.60435599 46.69822241 -23.26133701 44.56292434 -28.8125 38.625 C-33.64494451 32.61471594 -34.46893601 27.20919765 -34.30859375 19.59765625 C-33.32642793 11.39915627 -29.0164593 5.91353639 -22.8046875 0.77734375 C-16.67472884 -3.41616353 -6.66870555 -2.5788691 0 0 Z " fill="#323A42" transform="translate(537.9375,497.5)"/>
<path d="M0 0 C6.20036989 3.20276459 9.92952146 8.98524653 12.0625 15.5 C13.15967077 25.34902135 11.65655561 32.97421118 5.6875 40.875 C0.9313106 45.6311894 -2.67387734 46.6910197 -9.3125 46.875 C-17.20048187 46.64194599 -22.23875946 45.64456119 -27.75 39.8125 C-32.83160436 33.43148996 -34.5935837 27.47644112 -34.35546875 19.3125 C-33.3005854 12.21421952 -29.50279213 5.97938147 -23.9375 1.5 C-17.27862458 -3.32768468 -7.46977805 -2.84864417 0 0 Z " fill="#323942" transform="translate(712.9375,497.5)"/>
<path d="M0 0 C4.84210217 4.50717416 8.73955045 8.87460545 9.30078125 15.609375 C9.54016818 32.16098645 9.54016818 32.16098645 4.1953125 37.95703125 C-2.44718109 44.11073757 -7.77018805 45.48759776 -16.7734375 45.3046875 C-22.30606125 44.78223635 -25.91419295 43.19313045 -29.74609375 39.1640625 C-35.36034656 32.13614891 -36.58239194 25.45167786 -36.44140625 16.55078125 C-35.6548102 10.2232077 -32.81931294 5.61923267 -28.18359375 1.3125 C-20.48960311 -4.53692701 -8.28056941 -5.29327539 0 0 Z " fill="#313942" transform="translate(628,499)"/>
<path d="M0 0 C1.3293457 0.00483398 1.3293457 0.00483398 2.68554688 0.00976562 C3.59755859 0.01814453 4.50957031 0.02652344 5.44921875 0.03515625 C6.38056641 0.03966797 7.31191406 0.04417969 8.27148438 0.04882812 C10.55996248 0.06056391 12.84830683 0.07698262 15.13671875 0.09765625 C15.45327033 7.64834242 14.51432049 12.75925374 10.13671875 19.09765625 C4.66250199 24.29816218 -1.4972044 24.43883113 -8.68359375 24.3828125 C-13.03827483 23.99228213 -14.75467124 23.12224978 -17.86328125 20.09765625 C-20.4486467 16.68967453 -20.30110071 13.25694115 -19.86328125 9.09765625 C-17.32374935 4.79998689 -14.43684632 2.9644175 -9.86328125 1.09765625 C-6.517729 0.29607849 -3.43542169 -0.02216401 0 0 Z " fill="#333B44" transform="translate(943.86328125,521.90234375)"/>
<path d="M0 0 C5.48685899 3.18237821 8.82538587 6.88191619 11.125 12.8125 C11.125 14.7925 11.125 16.7725 11.125 18.8125 C-2.405 18.8125 -15.935 18.8125 -29.875 18.8125 C-29.875 11.75231846 -28.44916283 8.95370781 -23.875 3.8125 C-17.00824016 -1.93641521 -8.40132266 -3.15962787 0 0 Z " fill="#333A43" transform="translate(872.875,495.1875)"/>
<path d="M0 0 C4.33460571 2.49217577 7.37862946 5.88225892 9.625 10.375 C9.625 13.015 9.625 15.655 9.625 18.375 C-3.905 18.375 -17.435 18.375 -31.375 18.375 C-30.24724495 10.48071465 -28.50818279 6.69759743 -22.36328125 1.7578125 C-15.37568737 -2.68313586 -7.62493608 -3.40322006 0 0 Z " fill="#323A43" transform="translate(1097.375,495.625)"/>
<path d="M0 0 C35.64 0 71.28 0 108 0 C108 1.98 108 3.96 108 6 C94.06620728 6.02333048 80.13241757 6.04091349 66.19860935 6.05181217 C59.7293232 6.05704168 53.26005011 6.06414056 46.79077148 6.07543945 C40.553297 6.08626592 34.31583513 6.09227632 28.07835197 6.09487724 C25.69279723 6.09673193 23.30724321 6.10035336 20.9216938 6.10573006 C17.59304409 6.11293729 14.26444721 6.11399108 10.93579102 6.11352539 C9.4403904 6.1189183 9.4403904 6.1189183 7.91477966 6.12442017 C6.56224594 6.12235817 6.56224594 6.12235817 5.18238831 6.12025452 C4.3942553 6.12117631 3.6061223 6.1220981 2.79410648 6.12304783 C1 6 1 6 0 5 C0 3.35 0 1.7 0 0 Z " fill="#00ACB4" transform="translate(267,552)"/>
<path d="M0 0 C0.84755859 0.00322266 1.69511719 0.00644531 2.56835938 0.00976562 C3.8899707 0.02233398 3.8899707 0.02233398 5.23828125 0.03515625 C6.57729492 0.04192383 6.57729492 0.04192383 7.94335938 0.04882812 C10.14590112 0.06060642 12.34830724 0.07705461 14.55078125 0.09765625 C14.55078125 1.08765625 14.55078125 2.07765625 14.55078125 3.09765625 C8.61078125 3.42765625 2.67078125 3.75765625 -3.44921875 4.09765625 C-3.44921875 24.22765625 -3.44921875 44.35765625 -3.44921875 65.09765625 C26.91078125 65.09765625 57.27078125 65.09765625 88.55078125 65.09765625 C88.22078125 44.96765625 87.89078125 24.83765625 87.55078125 4.09765625 C81.28078125 3.76765625 75.01078125 3.43765625 68.55078125 3.09765625 C68.55078125 2.43765625 68.55078125 1.77765625 68.55078125 1.09765625 C75.81078125 1.09765625 83.07078125 1.09765625 90.55078125 1.09765625 C90.55078125 23.20765625 90.55078125 45.31765625 90.55078125 68.09765625 C58.21078125 68.09765625 25.87078125 68.09765625 -7.44921875 68.09765625 C-7.44921875 45.98765625 -7.44921875 23.87765625 -7.44921875 1.09765625 C-4.6251011 0.1562837 -2.92003843 -0.01959757 0 0 Z " fill="#00ABB3" transform="translate(279.44921875,480.90234375)"/>
<path d="M0 0 C0.33 0 0.66 0 1 0 C1 5.28 1 10.56 1 16 C0.34 16 -0.32 16 -1 16 C-1 17.98 -1 19.96 -1 22 C0.98 22.66 2.96 23.32 5 24 C5 23.34 5 22.68 5 22 C5.66 22 6.32 22 7 22 C5.91215032 18.75016865 5.91215032 18.75016865 4 16 C3.92680379 13.30345146 3.90757463 10.63308542 3.9375 7.9375 C3.94201172 7.17888672 3.94652344 6.42027344 3.95117188 5.63867188 C3.9629932 3.75908129 3.98092922 1.87953101 4 0 C7.99552404 1.99776202 9.18599839 7.62065343 10.875 11.5625 C11.32875 12.54025391 11.7825 13.51800781 12.25 14.52539062 C15.3426709 21.78538694 15.3426709 21.78538694 14.36425781 25.25341797 C13.2578125 27.27734375 13.2578125 27.27734375 12.02001953 28.96850586 C10.47649734 31.66375425 10.47649734 31.66375425 11 38 C5.39 38 -0.22 38 -6 38 C-6 36.02 -6 34.04 -6 32 C-6.93018248 30.00058007 -6.93018248 30.00058007 -8.1875 28.25 C-9.96217135 24.89080066 -10.19828788 23.04512265 -9.1875 19.375 C-6.73385437 12.66417434 -3.32106473 6.3145724 0 0 Z " fill="#01A9B1" transform="translate(319,498)"/>
<path d="M0 0 C0 8.25 0 16.5 0 25 C-7.59 25 -15.18 25 -23 25 C-23 21.7 -23 18.4 -23 15 C-21.35 14.67 -19.7 14.34 -18 14 C-18.020625 13.32453125 -18.04125 12.6490625 -18.0625 11.953125 C-17.99682769 9.11279766 -17.81357482 6.72761664 -17 4 C-14.58331241 1.89217159 -12.03836754 0.93988412 -9 0 C-6 -1 -6 -1 0 0 Z " fill="#00ABB3" transform="translate(320,454)"/>
<path d="M0 0 C9.98076923 0 9.98076923 0 14.43359375 2.37890625 C17.24896285 5.29256753 16.98121256 8.85289989 17.0625 12.734375 C17.041875 13.48203125 17.02125 14.2296875 17 15 C18.98 15 20.96 15 23 15 C23 18.3 23 21.6 23 25 C15.41 25 7.82 25 0 25 C0 16.75 0 8.5 0 0 Z " fill="#00ABB3" transform="translate(323,454)"/>
<path d="M0 0 C0.66 0.33 1.32 0.66 2 1 C2 3.31 2 5.62 2 8 C37.64 8.33 73.28 8.66 110 9 C110 7.02 110 5.04 110 3 C110.33 3 110.66 3 111 3 C111 4.98 111 6.96 111 9 C111.66 9 112.32 9 113 9 C113 9.66 113 10.32 113 11 C75.38 11 37.76 11 -1 11 C-1 1 -1 1 0 0 Z " fill="#2F3841" transform="translate(266,549)"/>
<path d="M0 0 C0.84755859 0.00322266 1.69511719 0.00644531 2.56835938 0.00976562 C3.8899707 0.02233398 3.8899707 0.02233398 5.23828125 0.03515625 C6.57729492 0.04192383 6.57729492 0.04192383 7.94335938 0.04882812 C10.14590112 0.06060642 12.34830724 0.07705461 14.55078125 0.09765625 C14.55078125 1.08765625 14.55078125 2.07765625 14.55078125 3.09765625 C8.61078125 3.42765625 2.67078125 3.75765625 -3.44921875 4.09765625 C-3.77921875 23.23765625 -4.10921875 42.37765625 -4.44921875 62.09765625 C-4.77921875 62.09765625 -5.10921875 62.09765625 -5.44921875 62.09765625 C-5.94421875 65.06765625 -5.94421875 65.06765625 -6.44921875 68.09765625 C-6.77921875 68.09765625 -7.10921875 68.09765625 -7.44921875 68.09765625 C-7.44921875 45.98765625 -7.44921875 23.87765625 -7.44921875 1.09765625 C-4.6251011 0.1562837 -2.92003843 -0.01959757 0 0 Z " fill="#0F8890" transform="translate(279.44921875,480.90234375)"/>
<path d="M0 0 C0.66 0 1.32 0 2 0 C2 1.32 2 2.64 2 4 C3.98491642 3.73323796 3.98491642 3.73323796 6 3 C6.33 2.01 6.66 1.02 7 0 C7.66 0 8.32 0 9 0 C9 1.32 9 2.64 9 4 C39.69 4 70.38 4 102 4 C102 4.33 102 4.66 102 5 C66.69 5 31.38 5 -5 5 C-3.68 4.34 -2.36 3.68 -1 3 C-0.67 2.01 -0.34 1.02 0 0 Z " fill="#0C9098" transform="translate(273,553)"/>
<path d="M0 0 C7.59 0 15.18 0 23 0 C23 1.65 23 3.3 23 5 C15.41 5 7.82 5 0 5 C0 3.35 0 1.7 0 0 Z " fill="#00ADB5" transform="translate(310,539)"/>
<path d="M0 0 C3.3 0 6.6 0 10 0 C10 2.97 10 5.94 10 9 C6.7 9 3.4 9 0 9 C0 6.03 0 3.06 0 0 Z " fill="#00ADB5" transform="translate(342,457)"/>
<path d="M0 0 C2.97 0 5.94 0 9 0 C9 2.97 9 5.94 9 9 C6.03 9 3.06 9 0 9 C0 6.03 0 3.06 0 0 Z " fill="#00ADB5" transform="translate(291,457)"/>
<path d="M0 0 C2.97 0 5.94 0 9 0 C9 2.97 9 5.94 9 9 C6.03 9 3.06 9 0 9 C0 6.03 0 3.06 0 0 Z " fill="#00ADB5" transform="translate(317,442)"/>
<path d="M0 0 C1.52227775 4.56683324 -1.02873127 8.12143043 -2.99414062 12.28710938 C-4.50249092 15.73526029 -5.0835659 17.62351364 -4.2578125 21.34375 C-3.48375379 22.97840815 -2.67540002 24.59794733 -1.8125 26.1875 C-1 28 -1 28 -2 31 C-2.66 31 -3.32 31 -4 31 C-9.16738918 21.41085163 -9.16738918 21.41085163 -8.5625 16.3125 C-8.046875 15.219375 -7.53125 14.12625 -7 13 C-6.690625 12.33097656 -6.38125 11.66195312 -6.0625 10.97265625 C-4.25653521 7.18436293 -2.22489484 3.55983175 0 0 Z " fill="#2C414A" transform="translate(315,502)"/>
<path d="M0 0 C0.66 0 1.32 0 2 0 C2 1.32 2 2.64 2 4 C3.65 4 5.3 4 7 4 C7 4.33 7 4.66 7 5 C3.04 5 -0.92 5 -5 5 C-3.68 4.34 -2.36 3.68 -1 3 C-0.67 2.01 -0.34 1.02 0 0 Z M7 0 C7.66 0 8.32 0 9 0 C8.67 1.32 8.34 2.64 8 4 C7.34 3.67 6.68 3.34 6 3 C6.33 2.01 6.66 1.02 7 0 Z " fill="#18727B" transform="translate(273,553)"/>
<path d="M0 0 C2.31 0 4.62 0 7 0 C6.67 1.65 6.34 3.3 6 5 C4.02 5 2.04 5 0 5 C0 3.35 0 1.7 0 0 Z " fill="#059FA8" transform="translate(267,552)"/>
<path d="M0 0 C1.39195915 4.17587745 -0.17676781 6.13474776 -2 10 C-2.66 10 -3.32 10 -4 10 C-3.43454163 6.04179141 -2.19097652 3.3340947 0 0 Z " fill="#303841" transform="translate(315,502)"/>
</svg>
